<svg xmlns="http://www.w3.org/2000/svg" width="512" height="512" viewBox="0 0 32 32">
  <g>
    <!-- Background (now brand color) -->
    <path fill="#fd5b09" d="M26 32H6a6 6 0 0 1-6-6V6a6 6 0 0 1 6-6h20a6 6 0 0 1 6 6v20a6 6 0 0 1-6 6z"/>

    <!-- Main blocks (lighter orange) -->
    <path fill="#ffffff" d="M22.667 8h-7.334C14.597 8 14 8.597 14 9.333v6c0 .736.597 1.333 1.333 1.333h7.334c.736 0 1.333-.597 1.333-1.333v-6C24 8.597 23.403 8 22.667 8zM22 15.333h-6a.667.667 0 0 1-.667-.667v-4h7.334v4a.667.667 0 0 1-.667.667z"/>

    <path fill="#ffffff" d="M16.667 18v4c0 .367-.3.667-.667.667h-6A.669.669 0 0 1 9.333 22v-4h6a2.666 2.666 0 0 1-2.667-2.667H9.333c-.733 0-1.333.6-1.333 1.334v6C8 23.4 8.6 24 9.333 24h7.334C17.4 24 18 23.4 18 22.667V18z"/>

    <!-- Accent icons (arrows) now background color) -->
    <g fill="#ff8a3d">
      <path d="M12.166 11.333h-.833v-.667c0-.367.299-.666.667-.666a.667.667 0 0 0 0-1.333c-1.103 0-2 .897-2 2v.667h-.834a.5.5 0 0 0-.372.835l1.5 1.667a.501.501 0 0 0 .744-.001l1.5-1.667a.503.503 0 0 0 .085-.538.5.5 0 0 0-.457-.297z"/>
      <path d="M23.206 19.832l-1.5-1.667a.505.505 0 0 0-.744 0l-1.5 1.667a.503.503 0 0 0-.085.538.5.5 0 0 0 .457.297h.833v.667c0 .367-.299.666-.667.666a.667.667 0 0 0 0 1.334c1.103 0 2-.897 2-2v-.667h.833a.5.5 0 0 0 .373-.835z"/>
    </g>
  </g>
</svg>
